<svg xmlns="http://www.w3.org/2000/svg" style="display: none">
    <symbol id="code-icon" xmlns="http://www.w3.org/2000/svg" viewBox="0 0 24 24" width="100%" height="100%">
        <path
            fill="none"
            stroke="currentColor"
            stroke-linecap="round"
            stroke-linejoin="round"
            stroke-width="2"
            d="m7 8l-4 4l4 4m10-8l4 4l-4 4M14 4l-4 16"
        />
    </symbol>

    <symbol id="job-icon" xmlns="http://www.w3.org/2000/svg" viewBox="0 0 24 24" width="100%" height="100%">
        <g fill="none" stroke="currentColor" stroke-linecap="round" stroke-linejoin="round" stroke-width="1.5">
            <path
                d="M2 14c0-2.809 0-4.213.674-5.222a4 4 0 0 1 1.104-1.104C4.787 7 6.19 7 9 7h6c2.809 0 4.213 0 5.222.674a4 4 0 0 1 1.104 1.104C22 9.787 22 11.19 22 14s0 4.213-.674 5.222a4 4 0 0 1-1.104 1.104C19.213 21 17.81 21 15 21H9c-2.809 0-4.213 0-5.222-.674a4 4 0 0 1-1.104-1.104C2 18.213 2 16.81 2 14m14-7c0-1.886 0-2.828-.586-3.414S13.886 3 12 3s-2.828 0-3.414.586S8 5.114 8 7"
            />
            <path d="m6 11l.652.202a18.3 18.3 0 0 0 10.696 0L18 11m-6 1v2" />
        </g>
    </symbol>

    <symbol id="technologies-icon" xmlns="http://www.w3.org/2000/svg" viewBox="0 0 24 24" width="100%" height="100%">
        <g fill="none" stroke="currentColor" stroke-linecap="round" stroke-linejoin="round" stroke-width="1.5">
            <path d="M7 14a3 3 0 1 0 1 5.83" />
            <path
                d="M4.264 15.605a4 4 0 0 1-.874-6.636m.03-.081A2.5 2.5 0 0 1 7 5.5m.238.065A2.5 2.5 0 1 1 12 4.5V20m-4 0a2 2 0 1 0 4 0m0-13a3 3 0 0 0 3 3m2 4a3 3 0 1 1-1 5.83"
            />
            <path
                d="M19.736 15.605a4 4 0 0 0 .874-6.636m-.03-.081A2.5 2.5 0 0 0 17 5.5m-5-1a2.5 2.5 0 1 1 4.762 1.065M16 20a2 2 0 1 1-4 0"
            />
        </g>
    </symbol>

    <symbol id="user-icon" xmlns="http://www.w3.org/2000/svg" viewBox="0 0 24 24" width="100%" height="100%">
        <g fill="none" stroke="currentColor" stroke-width="2">
            <path stroke-linejoin="round" d="M4 18a4 4 0 0 1 4-4h8a4 4 0 0 1 4 4a2 2 0 0 1-2 2H6a2 2 0 0 1-2-2Z" />
            <circle cx="12" cy="7" r="3" />
        </g>
    </symbol>

    <symbol id="mail-icon" xmlns="http://www.w3.org/2000/svg" viewBox="0 0 24 24" width="100%" height="100%">
        <g fill="none" stroke="currentColor" stroke-width="1.5">
            <path stroke-linecap="round" stroke-linejoin="round" d="m7 9l5 3.5L17 9" />
            <path d="M2 17V7a2 2 0 0 1 2-2h16a2 2 0 0 1 2 2v10a2 2 0 0 1-2 2H4a2 2 0 0 1-2-2Z" />
        </g>
    </symbol>

    <symbol id="close-icon" xmlns="http://www.w3.org/2000/svg" width="100%" height="100%" viewBox="0 0 24 24">
        <path
            fill="none"
            stroke="currentColor"
            stroke-linecap="round"
            stroke-linejoin="round"
            stroke-width="2"
            d="m7 7l10 10M7 17L17 7"
        />
    </symbol>

    <symbol id="menu-icon" xmlns="http://www.w3.org/2000/svg" width="100%" height="100%" viewBox="0 0 24 24">
        <path
            fill="currentColor"
            d="M2 6a1 1 0 0 1 1-1h18a1 1 0 1 1 0 2H3a1 1 0 0 1-1-1m0 6.032a1 1 0 0 1 1-1h18a1 1 0 1 1 0 2H3a1 1 0 0 1-1-1m1 5.033a1 1 0 1 0 0 2h18a1 1 0 0 0 0-2z"
        />
    </symbol>

    <symbol id="linkedin-icon" xmlns="http://www.w3.org/2000/svg" width="100%" height="100%" viewBox="0 0 24 24">
        <path
            fill="currentColor"
            d="M19 3a2 2 0 0 1 2 2v14a2 2 0 0 1-2 2H5a2 2 0 0 1-2-2V5a2 2 0 0 1 2-2zm-.5 15.5v-5.3a3.26 3.26 0 0 0-3.26-3.26c-.85 0-1.84.52-2.32 1.3v-1.11h-2.79v8.37h2.79v-4.93c0-.77.62-1.4 1.39-1.4a1.4 1.4 0 0 1 1.4 1.4v4.93zM6.88 8.56a1.68 1.68 0 0 0 1.68-1.68c0-.93-.75-1.69-1.68-1.69a1.69 1.69 0 0 0-1.69 1.69c0 .93.76 1.68 1.69 1.68m1.39 9.94v-8.37H5.5v8.37z"
        />
    </symbol>

    <symbol id="github-icon" xmlns="http://www.w3.org/2000/svg" width="100%" height="100%" viewBox="0 0 24 24">
        <path
            fill="currentColor"
            d="M12 2A10 10 0 0 0 2 12c0 4.42 2.87 8.17 6.84 9.5c.5.08.66-.23.66-.5v-1.69c-2.77.6-3.36-1.34-3.36-1.34c-.46-1.16-1.11-1.47-1.11-1.47c-.91-.62.07-.6.07-.6c1 .07 1.53 1.03 1.53 1.03c.87 1.52 2.34 1.07 2.91.83c.09-.65.35-1.09.63-1.34c-2.22-.25-4.55-1.11-4.55-4.92c0-1.11.38-2 1.03-2.71c-.1-.25-.45-1.29.1-2.64c0 0 .84-.27 2.75 1.02c.79-.22 1.65-.33 2.5-.33s1.71.11 2.5.33c1.91-1.29 2.75-1.02 2.75-1.02c.55 1.35.2 2.39.1 2.64c.65.71 1.03 1.6 1.03 2.71c0 3.82-2.34 4.66-4.57 4.91c.36.31.69.92.69 1.85V21c0 .27.16.59.67.5C19.14 20.16 22 16.42 22 12A10 10 0 0 0 12 2"
        />
    </symbol>

    <symbol id="doc-icon" xmlns="http://www.w3.org/2000/svg" width="100%" height="100%" viewBox="0 0 24 24">
        <g fill="none" fill-rule="evenodd">
            <path
                d="m12.593 23.258l-.011.002l-.071.035l-.02.004l-.014-.004l-.071-.035q-.016-.005-.024.005l-.004.01l-.017.428l.005.02l.01.013l.104.074l.015.004l.012-.004l.104-.074l.012-.016l.004-.017l-.017-.427q-.004-.016-.017-.018m.265-.113l-.013.002l-.185.093l-.01.01l-.003.011l.018.43l.005.012l.008.007l.201.093q.019.005.029-.008l.004-.014l-.034-.614q-.005-.018-.02-.022m-.715.002a.02.02 0 0 0-.027.006l-.006.014l-.034.614q.001.018.017.024l.015-.002l.201-.093l.01-.008l.004-.011l.017-.43l-.003-.012l-.01-.01z"
            />
            <path
                fill="currentColor"
                d="M12 2v6.5a1.5 1.5 0 0 0 1.5 1.5H20v10a2 2 0 0 1-2 2H6a2 2 0 0 1-2-2V4a2 2 0 0 1 2-2zm3 13H9a1 1 0 1 0 0 2h6a1 1 0 1 0 0-2m-5-4H9a1 1 0 1 0 0 2h1a1 1 0 1 0 0-2m4-8.957a2 2 0 0 1 1 .543L19.414 7a2 2 0 0 1 .543 1H14Z"
            />
        </g>
    </symbol>

    <symbol id="shorter-icon" viewBox="0 0 24 24">
        <g fill="none" stroke="currentColor" stroke-linecap="round" stroke-linejoin="round" stroke-width="2">
            <path d="M10 13a5 5 0 0 0 7.54.54l3-3a5 5 0 0 0-7.07-7.07l-1.72 1.71" />
            <path d="M14 11a5 5 0 0 0-7.54-.54l-3 3a5 5 0 0 0 7.07 7.07l1.71-1.71" />
        </g>
    </symbol>

    <symbol id="link-icon" viewBox="0 0 24 24">
        <path
            fill="currentColor"
            d="M11 17H7q-2.075 0-3.537-1.463T2 12t1.463-3.537T7 7h4v2H7q-1.25 0-2.125.875T4 12t.875 2.125T7 15h4zm-3-4v-2h8v2zm5 4v-2h4q1.25 0 2.125-.875T20 12t-.875-2.125T17 9h-4V7h4q2.075 0 3.538 1.463T22 12t-1.463 3.538T17 17z"
        />
    </symbol>

    <symbol id="arrow-icon" xmlns="http://www.w3.org/2000/svg" width="100%" height="100%" viewBox="0 0 24 24">
        <path fill="currentColor" d="m11.293 17.293l1.414 1.414L19.414 12l-6.707-6.707l-1.414 1.414L15.586 11H6v2h9.586z" />
    </symbol>

    <symbol id="github-icon" xmlns="http://www.w3.org/2000/svg" width="100%" height="100%" viewBox="0 0 24 24">
        <path
            fill="#currentColor"
            d="M12 2A10 10 0 0 0 2 12c0 4.42 2.87 8.17 6.84 9.5c.5.08.66-.23.66-.5v-1.69c-2.77.6-3.36-1.34-3.36-1.34c-.46-1.16-1.11-1.47-1.11-1.47c-.91-.62.07-.6.07-.6c1 .07 1.53 1.03 1.53 1.03c.87 1.52 2.34 1.07 2.91.83c.09-.65.35-1.09.63-1.34c-2.22-.25-4.55-1.11-4.55-4.92c0-1.11.38-2 1.03-2.71c-.1-.25-.45-1.29.1-2.64c0 0 .84-.27 2.75 1.02c.79-.22 1.65-.33 2.5-.33s1.71.11 2.5.33c1.91-1.29 2.75-1.02 2.75-1.02c.55 1.35.2 2.39.1 2.64c.65.71 1.03 1.6 1.03 2.71c0 3.82-2.34 4.66-4.57 4.91c.36.31.69.92.69 1.85V21c0 .27.16.59.67.5C19.14 20.16 22 16.42 22 12A10 10 0 0 0 12 2"
        />
    </symbol>

    <symbol id="check-icon" xmlns="http://www.w3.org/2000/svg" width="100%" height="100%" viewBox="0 0 24 24">
        <path
            fill="currentColor"
            d="m10.6 16.6l7.05-7.05l-1.4-1.4l-5.65 5.65l-2.85-2.85l-1.4 1.4zM12 22q-2.075 0-3.9-.788t-3.175-2.137T2.788 15.9T2 12t.788-3.9t2.137-3.175T8.1 2.788T12 2t3.9.788t3.175 2.137T21.213 8.1T22 12t-.788 3.9t-2.137 3.175t-3.175 2.138T12 22m0-2q3.35 0 5.675-2.325T20 12t-2.325-5.675T12 4T6.325 6.325T4 12t2.325 5.675T12 20m0-8"
        />
    </symbol>

    <symbol id="analytics-icon" xmlns="http://www.w3.org/2000/svg" width="100%" height="100%" viewBox="0 0 24 24">
        <path
            fill="currentColor"
            fill-rule="evenodd"
            d="M3 6a3 3 0 0 1 3-3h12a3 3 0 0 1 3 3v12a3 3 0 0 1-3 3H6a3 3 0 0 1-3-3zm10 2a1 1 0 1 0-2 0v8a1 1 0 1 0 2 0zm-4 3a1 1 0 1 0-2 0v5a1 1 0 1 0 2 0zm8 3a1 1 0 1 0-2 0v2a1 1 0 1 0 2 0z"
            clip-rule="evenodd"
        />
    </symbol>

    <symbol id="qr-icon" xmlns="http://www.w3.org/2000/svg" width="100%" height="100%" viewBox="0 0 24 24">
        <path
            fill="currentColor"
            d="M7.978 3.5h.689a.5.5 0 0 1 0 1H8c-.708 0-1.21 0-1.601.032c-.386.032-.622.092-.807.186a2 2 0 0 0-.874.874c-.094.185-.154.42-.186.807C4.5 6.79 4.5 7.292 4.5 8v.667a.5.5 0 0 1-1 0v-.689c0-.681 0-1.223.036-1.66c.036-.449.113-.83.291-1.18a3 3 0 0 1 1.311-1.311c.35-.178.731-.255 1.18-.291c.437-.036.979-.036 1.66-.036m9.623 1.032C17.21 4.5 16.708 4.5 16 4.5h-.667a.5.5 0 0 1 0-1h.689c.681 0 1.223 0 1.66.036c.449.036.83.113 1.18.291a3 3 0 0 1 1.311 1.311c.178.35.255.731.291 1.18c.036.437.036.979.036 1.66v.689a.5.5 0 0 1-1 0V8c0-.708 0-1.21-.032-1.601c-.032-.386-.092-.622-.186-.807a2 2 0 0 0-.874-.874c-.185-.094-.42-.154-.807-.186M4 14.833a.5.5 0 0 1 .5.5V16c0 .708 0 1.21.032 1.601c.032.386.092.622.186.807a2 2 0 0 0 .874.874c.185.094.42.154.807.186c.392.032.893.032 1.601.032h.667a.5.5 0 0 1 0 1h-.689c-.681 0-1.223 0-1.66-.036c-.449-.036-.83-.113-1.18-.291a3 3 0 0 1-1.311-1.311c-.178-.35-.255-.731-.291-1.18c-.036-.437-.036-.979-.036-1.66v-.689a.5.5 0 0 1 .5-.5m16 0a.5.5 0 0 1 .5.5v.689c0 .681 0 1.224-.036 1.66c-.036.449-.113.83-.291 1.18a3 3 0 0 1-1.311 1.311c-.35.178-.731.255-1.18.291c-.436.036-.979.036-1.66.036h-.689a.5.5 0 0 1 0-1H16c.708 0 1.21 0 1.601-.032c.386-.032.622-.092.807-.186a2 2 0 0 0 .874-.874c.094-.185.154-.42.186-.807c.032-.392.032-.893.032-1.601v-.667a.5.5 0 0 1 .5-.5"
        />
        <path
            fill="currentColor"
            fill-rule="evenodd"
            d="M8.58 6.5h.34c.263 0 .49 0 .678.015c.197.016.394.052.583.148a1.5 1.5 0 0 1 .656.656c.096.19.132.386.148.583c.015.188.015.415.015.679v.338c0 .264 0 .491-.015.679a1.5 1.5 0 0 1-.149.583a1.5 1.5 0 0 1-.655.656c-.19.096-.386.132-.583.148C9.41 11 9.183 11 8.919 11h-.338c-.264 0-.491 0-.679-.015a1.5 1.5 0 0 1-.583-.149a1.5 1.5 0 0 1-.656-.655a1.5 1.5 0 0 1-.148-.583C6.5 9.41 6.5 9.183 6.5 8.919v-.338c0-.264 0-.491.015-.679c.016-.197.052-.394.148-.583a1.5 1.5 0 0 1 .656-.656c.19-.096.386-.132.583-.148c.188-.015.415-.015.679-.015m-.596 1.012a.6.6 0 0 0-.211.043a.5.5 0 0 0-.218.218a.6.6 0 0 0-.043.21A9 9 0 0 0 7.5 8.6v.3c0 .288 0 .474.012.616a.6.6 0 0 0 .043.211a.5.5 0 0 0 .218.218a.6.6 0 0 0 .21.043c.143.012.329.012.617.012h.3c.288 0 .474 0 .616-.012a.6.6 0 0 0 .211-.043a.5.5 0 0 0 .218-.218a.6.6 0 0 0 .043-.21C10 9.373 10 9.187 10 8.9v-.3c0-.288 0-.474-.012-.616a.6.6 0 0 0-.043-.211a.5.5 0 0 0-.218-.218a.6.6 0 0 0-.21-.043A9 9 0 0 0 8.9 7.5h-.3c-.288 0-.474 0-.616.012M8.92 13h-.34c-.263 0-.49 0-.678.015a1.5 1.5 0 0 0-.583.149a1.5 1.5 0 0 0-.656.655c-.096.19-.132.386-.148.583c-.015.188-.015.415-.015.679v.338c0 .264 0 .491.015.678c.016.198.052.395.148.584a1.5 1.5 0 0 0 .656.656c.19.096.386.132.583.148c.188.015.415.015.679.015h.338c.264 0 .491 0 .679-.015c.197-.016.394-.052.583-.148a1.5 1.5 0 0 0 .656-.656c.096-.19.132-.386.148-.584c.015-.187.015-.414.015-.678v-.338c0-.264 0-.491-.015-.678a1.5 1.5 0 0 0-.149-.584a1.5 1.5 0 0 0-.655-.655a1.5 1.5 0 0 0-.583-.149C9.41 13 9.183 13 8.919 13m-1.147 1.055a.6.6 0 0 1 .21-.043C8.127 14 8.313 14 8.6 14h.3c.288 0 .474 0 .616.012a.6.6 0 0 1 .211.043a.5.5 0 0 1 .218.218a.6.6 0 0 1 .043.21c.012.143.012.329.012.617v.3c0 .288 0 .474-.012.616a.6.6 0 0 1-.043.211a.5.5 0 0 1-.218.218a.6.6 0 0 1-.21.043a9 9 0 0 1-.617.012h-.3c-.288 0-.474 0-.616-.012a.6.6 0 0 1-.211-.043a.5.5 0 0 1-.218-.218a.6.6 0 0 1-.043-.21A9 9 0 0 1 7.5 15.4v-.3c0-.288 0-.474.012-.616a.6.6 0 0 1 .043-.211a.5.5 0 0 1 .218-.218M15.08 6.5h.34c.263 0 .49 0 .678.015c.197.016.394.052.583.148a1.5 1.5 0 0 1 .656.656c.096.19.132.386.148.583c.015.188.015.415.015.679v.338c0 .264 0 .491-.015.679a1.5 1.5 0 0 1-.148.583a1.5 1.5 0 0 1-.656.656c-.19.096-.386.132-.584.148c-.187.015-.414.015-.678.015h-.338c-.264 0-.491 0-.678-.015a1.5 1.5 0 0 1-.584-.149a1.5 1.5 0 0 1-.655-.655a1.5 1.5 0 0 1-.149-.583C13 9.41 13 9.183 13 8.919v-.338c0-.264 0-.491.015-.679c.016-.197.052-.394.149-.583a1.5 1.5 0 0 1 .655-.656c.19-.096.386-.132.583-.148c.188-.015.415-.015.679-.015m-.596 1.012a.6.6 0 0 0-.211.043a.5.5 0 0 0-.218.218a.6.6 0 0 0-.043.21A9 9 0 0 0 14 8.6v.3c0 .288 0 .474.012.616a.6.6 0 0 0 .043.211a.5.5 0 0 0 .218.218a.6.6 0 0 0 .21.043c.143.012.329.012.617.012h.3c.288 0 .474 0 .616-.012a.6.6 0 0 0 .211-.043a.5.5 0 0 0 .218-.218a.6.6 0 0 0 .043-.21c.012-.143.012-.329.012-.617v-.3c0-.288 0-.474-.012-.616a.6.6 0 0 0-.043-.211a.5.5 0 0 0-.218-.218a.6.6 0 0 0-.21-.043A9 9 0 0 0 15.4 7.5h-.3c-.288 0-.474 0-.616.012"
            clip-rule="evenodd"
        />
        <path
            fill="currentColor"
            d="M14.5 13.5a.5.5 0 0 0-1 0v.75a1.5 1.5 0 0 0 1.5 1.5h1.5a.5.5 0 0 1 .5.5V17a.5.5 0 0 0 1 0v-.75a1.5 1.5 0 0 0-1.5-1.5H15a.5.5 0 0 1-.5-.5z"
        />
    </symbol>

    <symbol id="google-icon" xmlns="http://www.w3.org/2000/svg" width="100%" height="100%" viewBox="0 0 16 16">
        <g fill="none" fill-rule="evenodd" clip-rule="evenodd">
            <path
                fill="#f44336"
                d="M7.209 1.061c.725-.081 1.154-.081 1.933 0a6.57 6.57 0 0 1 3.65 1.82a100 100 0 0 0-1.986 1.93q-1.876-1.59-4.188-.734q-1.696.78-2.362 2.528a78 78 0 0 1-2.148-1.658a.26.26 0 0 0-.16-.027q1.683-3.245 5.26-3.86"
                opacity=".987"
            />
            <path
                fill="#ffc107"
                d="M1.946 4.92q.085-.013.161.027a78 78 0 0 0 2.148 1.658A7.6 7.6 0 0 0 4.04 7.99q.037.678.215 1.331L2 11.116Q.527 8.038 1.946 4.92"
                opacity=".997"
            />
            <path
                fill="#448aff"
                d="M12.685 13.29a26 26 0 0 0-2.202-1.74q1.15-.812 1.396-2.228H8.122V6.713q3.25-.027 6.497.055q.616 3.345-1.423 6.032a7 7 0 0 1-.51.49"
                opacity=".999"
            />
            <path
                fill="#43a047"
                d="M4.255 9.322q1.23 3.057 4.51 2.854a3.94 3.94 0 0 0 1.718-.626q1.148.812 2.202 1.74a6.62 6.62 0 0 1-4.027 1.684a6.4 6.4 0 0 1-1.02 0Q3.82 14.524 2 11.116z"
                opacity=".993"
            />
        </g>
    </symbol>

    <symbol id="home-icon" xmlns="http://www.w3.org/2000/svg" width="100%" height="100%" viewBox="0 0 24 24">
        <path fill="currentColor" d="M4 21V9l8-6l8 6v12h-6v-7h-4v7z" />
    </symbol>

    <symbol id="settings-icon" xmlns="http://www.w3.org/2000/svg" width="100%" height="100%" viewBox="0 0 24 24">
        <path
            fill="currentColor"
            d="m9.25 22l-.4-3.2q-.325-.125-.612-.3t-.563-.375L4.7 19.375l-2.75-4.75l2.575-1.95Q4.5 12.5 4.5 12.338v-.675q0-.163.025-.338L1.95 9.375l2.75-4.75l2.975 1.25q.275-.2.575-.375t.6-.3l.4-3.2h5.5l.4 3.2q.325.125.613.3t.562.375l2.975-1.25l2.75 4.75l-2.575 1.95q.025.175.025.338v.674q0 .163-.05.338l2.575 1.95l-2.75 4.75l-2.95-1.25q-.275.2-.575.375t-.6.3l-.4 3.2zm2.8-6.5q1.45 0 2.475-1.025T15.55 12t-1.025-2.475T12.05 8.5q-1.475 0-2.488 1.025T8.55 12t1.013 2.475T12.05 15.5"
        />
    </symbol>
</svg>
